<?xml version="1.0" standalone="no"?>
<!DOCTYPE svg PUBLIC "-//W3C//DTD SVG 20010904//EN"
 "http://www.w3.org/TR/2001/REC-SVG-20010904/DTD/svg10.dtd">
<svg version="1.0" xmlns="http://www.w3.org/2000/svg"
 width="150.000000pt" height="150.000000pt" viewBox="0 0 150.000000 150.000000"
 preserveAspectRatio="xMidYMid meet">

<g transform="translate(0.000000,150.000000) scale(0.100000,-0.100000)"
fill="#000000" stroke="none">
<path d="M0 750 l0 -750 750 0 750 0 0 750 0 750 -750 0 -750 0 0 -750z m945
549 c228 -84 374 -295 375 -539 0 -94 -20 -173 -65 -259 -34 -64 -109 -161
-124 -161 -5 0 -11 73 -15 163 -4 89 -9 199 -13 244 -6 91 -6 91 -103 112 -25
5 -77 17 -116 26 l-72 17 -6 61 c-9 83 -43 284 -56 326 -6 24 -6 37 0 41 17
11 133 -8 195 -31z m-236 5 c7 -15 21 -81 32 -148 10 -67 21 -133 24 -147 4
-24 0 -28 -32 -34 -40 -7 -52 3 -53 45 0 14 -11 86 -24 160 -13 74 -21 138
-19 143 2 4 17 7 32 7 20 0 31 -7 40 -26z m-96 -16 c3 -13 16 -89 28 -171 19
-130 20 -172 5 -156 -5 4 -56 319 -56 340 0 19 18 8 23 -13z m-27 -129 c33
-202 34 -209 20 -209 -8 0 -20 50 -35 148 -12 81 -25 160 -28 176 -5 22 -3 28
8 24 10 -3 21 -47 35 -139z m-58 64 c19 -98 44 -274 40 -278 -1 -2 -19 -6 -38
-10 l-35 -6 -23 133 c-13 73 -25 145 -28 160 -5 22 -1 29 22 42 45 24 51 20
62 -41z m-124 -30 c3 -10 15 -67 27 -128 31 -158 35 -327 14 -519 -15 -131
-15 -160 -4 -166 20 -13 27 -3 34 48 12 89 8 89 109 2 99 -85 106 -97 106
-186 0 -41 -2 -44 -27 -44 -42 1 -153 41 -216 80 -112 68 -207 190 -248 320
-29 90 -29 240 0 330 26 83 79 172 139 233 51 52 58 55 66 30z m366 -266 c0
-20 -9 -24 -112 -46 -62 -13 -123 -26 -135 -28 -19 -5 -23 -1 -23 21 0 28 -7
25 135 55 124 26 135 26 135 -2z m-100 -328 l0 -57 -59 -22 -59 -22 -32 23
c-27 20 -30 28 -26 59 3 19 8 65 11 101 l6 67 80 -46 79 -47 0 -56z m384 99
c3 -29 8 -81 10 -115 l6 -63 -126 63 c-161 80 -162 88 -14 134 58 17 108 32
112 32 4 1 9 -23 12 -51z m-276 -75 c-2 -35 -8 -49 -19 -51 -24 -4 -33 68 -11
86 27 21 33 14 30 -35z m62 -17 c0 -3 -4 -8 -10 -11 -5 -3 -10 -1 -10 4 0 6 5
11 10 11 6 0 10 -2 10 -4z m93 -57 c-9 -7 -102 -39 -115 -39 -4 0 -8 11 -8 25
0 20 8 29 32 39 27 12 37 12 65 -2 18 -9 30 -19 26 -23z m-158 -32 c2 -20 -10
-36 -27 -37 -13 0 -9 58 5 63 16 6 20 1 22 -26z m254 -6 c34 -18 39 -25 45
-67 3 -26 6 -71 6 -100 l0 -53 -74 -36 c-41 -20 -109 -42 -151 -50 -125 -24
-115 -35 -115 113 l0 128 113 41 c61 23 118 42 125 42 7 1 30 -8 51 -18z
m-353 -23 c13 -41 -48 -64 -80 -29 -16 18 -15 19 21 34 50 21 50 21 59 -5z m4
-78 c0 -5 -4 -10 -10 -10 -5 0 -10 5 -10 10 0 6 5 10 10 10 6 0 10 -4 10 -10z"/>
</g>
</svg>
