<?xml version="1.0" standalone="no"?>
<!DOCTYPE svg PUBLIC "-//W3C//DTD SVG 20010904//EN"
 "http://www.w3.org/TR/2001/REC-SVG-20010904/DTD/svg10.dtd">
<svg version="1.0" xmlns="http://www.w3.org/2000/svg"
 width="973.000000pt" height="481.000000pt" viewBox="0 0 973.000000 481.000000"
 preserveAspectRatio="xMidYMid meet">

<g transform="translate(0.000000,481.000000) scale(0.100000,-0.100000)"
fill="#000000" stroke="none">
<path d="M0 2405 l0 -2405 4865 0 4865 0 0 2405 0 2405 -4865 0 -4865 0 0
-2405z m530 2165 c0 -5 -4 -10 -10 -10 -5 0 -10 5 -10 10 0 6 5 10 10 10 6 0
10 -4 10 -10z m80 -34 c0 -26 5 -46 13 -49 6 -3 -4 -5 -23 -5 -19 0 -27 2 -17
5 20 5 25 78 5 86 -8 3 -6 6 5 6 14 1 17 -7 17 -43z m500 -5 c0 -46 -1 -48
-27 -47 -24 1 -28 5 -28 31 0 23 5 31 23 33 12 2 22 10 22 18 0 8 2 14 5 14 3
0 5 -22 5 -49z m160 0 c0 -46 -1 -48 -27 -47 -24 1 -28 5 -28 31 0 23 5 31 23
33 12 2 22 10 22 18 0 8 2 14 5 14 3 0 5 -22 5 -49z m-1227 32 c-30 -6 -29
-21 3 -33 36 -14 29 -45 -11 -46 -29 -2 -29 -2 -2 3 34 5 35 20 2 35 -38 17
-32 49 9 47 19 -2 19 -2 -1 -6z m405 0 c-10 -2 -18 -11 -18 -19 0 -8 8 -15 18
-15 15 -1 15 -2 0 -6 -9 -2 -19 -14 -21 -26 -2 -12 -5 -1 -6 26 -1 43 1 47 22
46 16 -1 18 -2 5 -6z m405 -76 c18 -4 17 -5 -5 -6 -27 -1 -28 1 -26 47 l1 47
4 -42 c3 -33 8 -43 26 -46z m645 76 c-13 -3 -18 -16 -20 -46 l-1 -42 -4 40
c-3 22 -10 43 -16 47 -7 4 4 7 23 7 19 -1 27 -3 18 -6z m-1350 -49 c3 -28 1
-31 -25 -30 -35 1 -38 28 -3 37 l25 6 -25 12 -25 11 25 -3 c20 -2 26 -8 28
-33z m45 -1 c8 -18 12 -33 7 -33 -4 0 -13 14 -19 31 -19 54 -14 54 12 2z m28
6 c-5 -13 -10 -19 -10 -12 -1 15 10 45 15 40 3 -2 0 -15 -5 -28z m87 9 c3 -14
-3 -18 -24 -18 -30 0 -23 -14 11 -23 12 -3 8 -5 -10 -4 -31 2 -43 23 -31 53 8
21 50 14 54 -8z m222 -7 c0 -16 6 -32 13 -34 6 -3 -4 -5 -23 -5 -19 0 -27 2
-17 5 20 5 24 49 5 56 -8 3 -6 6 5 6 12 1 17 -7 17 -28z m178 7 c3 -14 -3 -18
-24 -18 -30 0 -23 -14 11 -23 12 -3 8 -5 -10 -4 -31 2 -43 23 -31 53 8 21 50
14 54 -8z m237 -13 c0 -25 -4 -30 -25 -30 -16 0 -26 6 -28 18 -6 30 6 49 30
45 18 -2 23 -9 23 -33z m83 -1 c3 -28 1 -31 -25 -30 -35 1 -38 28 -3 37 l25 6
-25 12 -25 11 25 -3 c20 -2 26 -8 28 -33z m160 14 c3 -14 -3 -18 -24 -18 -30
0 -23 -14 11 -23 12 -3 8 -5 -10 -4 -31 2 -43 23 -31 53 8 21 50 14 54 -8z
m142 12 c0 -5 -4 -10 -10 -10 -5 0 -10 5 -10 10 0 6 5 10 10 10 6 0 10 -4 10
-10z m258 -11 c3 -11 2 -11 -7 1 -13 18 -27 5 -34 -30 -4 -21 -4 -21 -6 7 -1
40 37 59 47 22z m52 -34 c8 0 18 13 21 30 7 30 7 30 8 -6 1 -33 -1 -36 -26
-35 -25 1 -28 5 -30 36 -1 34 -1 34 5 5 4 -17 14 -30 22 -30z m108 33 c3 -14
-3 -18 -24 -18 -30 0 -23 -14 11 -23 12 -3 8 -5 -10 -4 -31 2 -43 23 -31 53 8
21 50 14 54 -8z m-418 -38 c0 -5 -4 -10 -10 -10 -5 0 -10 5 -10 10 0 6 5 10
10 10 6 0 10 -4 10 -10z m-940 -279 c0 -46 -1 -48 -27 -47 -24 1 -28 5 -28 31
0 23 5 31 23 33 12 2 22 10 22 18 0 8 2 14 5 14 3 0 5 -22 5 -49z m60 39 c0
-5 -4 -10 -10 -10 -5 0 -10 5 -10 10 0 6 5 10 10 10 6 0 10 -4 10 -10z m720 0
c0 -5 -4 -10 -10 -10 -5 0 -10 5 -10 10 0 6 5 10 10 10 6 0 10 -4 10 -10z m80
-34 c0 -26 5 -46 13 -49 6 -3 -4 -5 -23 -5 -19 0 -27 2 -17 5 20 5 25 78 5 86
-8 3 -6 6 5 6 14 1 17 -7 17 -43z m-1200 -5 c0 -22 5 -42 13 -44 6 -3 -4 -5
-23 -5 -19 0 -27 2 -17 5 12 3 17 15 17 40 0 32 -2 34 -17 22 -16 -13 -17 -12
-4 4 21 27 31 20 31 -22z m238 32 c-10 -2 -18 -11 -18 -19 0 -8 8 -15 18 -15
16 -1 16 -2 0 -6 -10 -2 -18 -11 -18 -18 0 -7 8 -16 18 -18 13 -4 11 -5 -5 -6
-21 -1 -23 4 -23 44 0 40 2 45 23 44 16 -1 18 -2 5 -6z m247 -16 c18 -4 18 -5
-2 -6 -16 -1 -23 -7 -23 -21 0 -12 10 -24 23 -30 l22 -9 -22 0 c-17 -1 -25 7
-31 32 -9 33 -4 67 7 49 3 -5 15 -12 26 -15z m148 16 c-30 -6 -29 -21 3 -33
36 -14 29 -45 -11 -46 -29 -2 -29 -2 -2 3 34 5 35 20 2 35 -38 17 -32 49 9 47
19 -2 19 -2 -1 -6z m405 0 c-10 -2 -18 -11 -18 -19 0 -8 8 -15 18 -15 15 -1
15 -2 0 -6 -9 -2 -19 -14 -21 -26 -2 -12 -5 -1 -6 26 -1 43 1 47 22 46 16 -1
18 -2 5 -6z m-638 -42 c0 -16 6 -32 13 -34 6 -3 -4 -5 -23 -5 -19 0 -27 2 -17
5 20 5 24 49 5 56 -8 3 -6 6 5 6 12 1 17 -7 17 -28z m338 -7 c3 -28 1 -31 -25
-30 -35 1 -38 28 -3 37 l25 6 -25 12 -25 11 25 -3 c20 -2 26 -8 28 -33z m45
-1 c8 -18 12 -33 7 -33 -4 0 -13 14 -19 31 -19 54 -14 54 12 2z m28 6 c-5 -13
-10 -19 -10 -12 -1 15 10 45 15 40 3 -2 0 -15 -5 -28z m87 9 c3 -14 -3 -18
-24 -18 -30 0 -23 -14 11 -23 12 -3 8 -5 -10 -4 -31 2 -43 23 -31 53 8 21 50
14 54 -8z m222 -7 c0 -16 6 -32 13 -34 6 -3 -4 -5 -23 -5 -19 0 -27 2 -17 5
20 5 24 49 5 56 -8 3 -6 6 5 6 12 1 17 -7 17 -28z m178 7 c3 -14 -3 -18 -24
-18 -30 0 -23 -14 11 -23 12 -3 8 -5 -10 -4 -31 2 -43 23 -31 53 8 21 50 14
54 -8z m-1218 -38 c0 -5 -4 -10 -10 -10 -5 0 -10 5 -10 10 0 6 5 10 10 10 6 0
10 -4 10 -10z m320 -80 c0 -5 -4 -10 -10 -10 -5 0 -10 5 -10 10 0 6 5 10 10
10 6 0 10 -4 10 -10z m-392 -23 c2 -10 -4 -27 -13 -37 -16 -17 -15 -19 7 -23
17 -3 15 -5 -10 -6 l-33 -1 20 26 c27 35 28 58 1 51 -11 -3 -17 -1 -14 4 9 16
38 6 42 -14z m230 16 c-10 -2 -18 -11 -18 -19 0 -8 8 -15 18 -15 16 -1 16 -2
0 -6 -10 -2 -18 -11 -18 -18 0 -7 8 -16 18 -18 13 -4 11 -5 -5 -6 -21 -1 -23
4 -23 44 0 40 2 45 23 44 16 -1 18 -2 5 -6z m247 -16 c18 -4 18 -5 -2 -6 -16
-1 -23 -7 -23 -21 0 -12 10 -24 23 -30 l22 -9 -22 0 c-17 -1 -25 7 -31 32 -9
33 -4 67 7 49 3 -5 15 -12 26 -15z m-168 -9 c3 6 9 12 15 12 7 0 6 -5 -1 -14
-10 -11 -10 -20 0 -38 11 -21 11 -22 -4 -9 -14 11 -20 11 -34 0 -17 -13 -17
-12 -4 4 13 16 13 22 1 40 -12 21 -12 21 5 7 14 -11 19 -12 22 -2z m83 -17 c0
-16 6 -32 13 -34 6 -3 -4 -5 -23 -5 -19 0 -27 2 -17 5 20 5 24 49 5 56 -8 3
-6 6 5 6 12 1 17 -7 17 -28z m-320 -31 c0 -5 -4 -10 -10 -10 -5 0 -10 5 -10
10 0 6 5 10 10 10 6 0 10 -4 10 -10z m875 -105 c16 0 20 -7 21 -35 l2 -35 -5
33 c-6 42 -35 40 -44 -3 -5 -22 -7 -16 -7 25 0 31 3 46 6 35 4 -11 16 -20 27
-20z m165 25 c0 -5 -4 -10 -10 -10 -5 0 -10 5 -10 10 0 6 5 10 10 10 6 0 10
-4 10 -10z m-1122 -7 c-10 -2 -18 -11 -18 -19 0 -8 8 -15 18 -15 16 -1 16 -2
0 -6 -10 -2 -18 -11 -18 -18 0 -7 8 -16 18 -18 13 -4 11 -5 -5 -6 -21 -1 -23
4 -23 44 0 40 2 45 23 44 16 -1 18 -2 5 -6z m167 -16 c18 -4 18 -5 -2 -6 -16
-1 -23 -7 -23 -21 0 -12 10 -24 23 -30 l22 -9 -22 0 c-17 -1 -25 7 -31 32 -9
33 -4 67 7 49 3 -5 15 -12 26 -15z m-69 -32 c1 -30 1 -30 -3 -2 -6 38 -36 32
-44 -8 -7 -30 -7 -30 -8 6 -1 33 1 36 27 35 23 -1 27 -5 28 -31z m162 13 c3
-14 -3 -18 -24 -18 -30 0 -23 -14 11 -23 12 -3 8 -5 -10 -4 -31 2 -43 23 -31
53 8 21 50 14 54 -8z m80 1 c3 -11 2 -11 -7 1 -13 18 -27 5 -34 -30 -4 -21 -4
-21 -6 7 -1 40 37 59 47 22z m135 -30 c12 -8 -10 -49 -26 -49 -8 0 -8 3 2 9
13 8 12 20 -4 78 -3 10 0 7 7 -7 7 -14 16 -28 21 -31z m18 24 c-12 -20 -14
-14 -5 12 4 9 9 14 11 11 3 -2 0 -13 -6 -23z m84 -8 c0 -25 -4 -30 -25 -30
-16 0 -26 6 -28 18 -6 30 6 49 30 45 18 -2 23 -9 23 -33z m55 -20 c8 0 18 13
21 30 7 30 7 30 8 -6 1 -33 -1 -36 -26 -35 -25 1 -28 5 -30 36 -1 34 -1 34 5
5 4 -17 14 -30 22 -30z m108 34 c3 -11 2 -11 -7 1 -13 18 -27 5 -34 -30 -4
-21 -4 -21 -6 7 -1 40 37 59 47 22z m135 11 c-13 -5 -23 -16 -23 -25 0 -9 10
-20 23 -25 17 -8 18 -9 3 -7 -28 3 -43 32 -27 51 8 9 21 16 30 15 11 0 9 -3
-6 -9z m182 -25 c0 -25 -4 -30 -25 -30 -16 0 -26 6 -28 18 -6 30 6 49 30 45
18 -2 23 -9 23 -33z m65 6 c0 -16 6 -32 13 -34 6 -3 -4 -5 -23 -5 -19 0 -27 2
-17 5 20 5 24 49 5 56 -8 3 -6 6 5 6 12 1 17 -7 17 -28z m73 19 c-13 -5 -23
-16 -23 -25 0 -9 10 -20 23 -25 17 -8 18 -9 3 -7 -28 3 -43 32 -27 51 8 9 21
16 30 15 11 0 9 -3 -6 -9z m105 -12 c3 -14 -3 -18 -24 -18 -30 0 -23 -14 11
-23 12 -3 8 -5 -10 -4 -31 2 -43 23 -31 53 8 21 50 14 54 -8z m62 12 c0 -5 -4
-10 -10 -10 -5 0 -10 5 -10 10 0 6 5 10 10 10 6 0 10 -4 10 -10z m0 -50 c0 -5
-4 -10 -10 -10 -5 0 -10 5 -10 10 0 6 5 10 10 10 6 0 10 -4 10 -10z m190 -20
c0 -17 -7 -20 -40 -20 -33 0 -40 3 -40 20 0 17 7 20 40 20 33 0 40 -3 40 -20z"/>
<path d="M1067 4533 c-4 -3 -7 -15 -7 -25 0 -28 34 -19 38 10 3 21 -16 31 -31
15z"/>
<path d="M1227 4533 c-4 -3 -7 -15 -7 -25 0 -28 34 -19 38 10 3 21 -16 31 -31
15z"/>
<path d="M100 4500 c0 -5 6 -10 14 -10 8 0 18 5 21 10 3 6 -3 10 -14 10 -12 0
-21 -4 -21 -10z"/>
<path d="M265 4530 c-3 -5 3 -10 15 -10 12 0 18 5 15 10 -3 6 -10 10 -15 10
-5 0 -12 -4 -15 -10z"/>
<path d="M665 4530 c-3 -5 3 -10 15 -10 12 0 18 5 15 10 -3 6 -10 10 -15 10
-5 0 -12 -4 -15 -10z"/>
<path d="M900 4515 c0 -18 5 -25 20 -25 15 0 20 7 20 25 0 18 -5 25 -20 25
-15 0 -20 -7 -20 -25z"/>
<path d="M980 4500 c0 -5 6 -10 14 -10 8 0 18 5 21 10 3 6 -3 10 -14 10 -12 0
-21 -4 -21 -10z"/>
<path d="M1145 4530 c-3 -5 3 -10 15 -10 12 0 18 5 15 10 -3 6 -10 10 -15 10
-5 0 -12 -4 -15 -10z"/>
<path d="M1705 4530 c-3 -5 3 -10 15 -10 12 0 18 5 15 10 -3 6 -10 10 -15 10
-5 0 -12 -4 -15 -10z"/>
<path d="M347 4213 c-4 -3 -7 -15 -7 -25 0 -28 34 -19 38 10 3 21 -16 31 -31
15z"/>
<path d="M740 4180 c0 -5 6 -10 14 -10 8 0 18 5 21 10 3 6 -3 10 -14 10 -12 0
-21 -4 -21 -10z"/>
<path d="M905 4210 c-3 -5 3 -10 14 -10 12 0 21 5 21 10 0 6 -6 10 -14 10 -8
0 -18 -4 -21 -10z"/>
<path d="M1305 4210 c-3 -5 3 -10 15 -10 12 0 18 5 15 10 -3 6 -10 10 -15 10
-5 0 -12 -4 -15 -10z"/>
<path d="M265 3890 c-3 -5 3 -10 15 -10 12 0 18 5 15 10 -3 6 -10 10 -15 10
-5 0 -12 -4 -15 -10z"/>
<path d="M580 3874 c0 -33 33 -30 38 4 3 17 -2 22 -17 22 -16 0 -21 -6 -21
-26z"/>
<path d="M1060 3874 c0 -33 33 -30 38 4 3 17 -2 22 -17 22 -16 0 -21 -6 -21
-26z"/>
<path d="M1305 3890 c-3 -5 3 -10 15 -10 12 0 18 5 15 10 -3 6 -10 10 -15 10
-5 0 -12 -4 -15 -10z"/>
</g>
</svg>
